<svg width="66" height="57" viewBox="0 0 66 57" fill="none" xmlns="http://www.w3.org/2000/svg">
<g clip-path="url(#clip0)">
<path d="M35.5753 44.3343L64.9456 18.9685C65.6255 18.3819 66 17.5987 66 16.7636C66 15.9286 65.6255 15.1454 64.9456 14.5587L62.7832 12.6907C61.3741 11.4752 59.084 11.4752 57.6771 12.6907L33.0137 33.9909L8.32291 12.6671C7.64306 12.0804 6.73677 11.7565 5.77039 11.7565C4.80294 11.7565 3.89665 12.0804 3.21627 12.6671L1.05438 14.5351C0.374535 15.1222 0 15.9049 0 16.74C0 17.5751 0.374535 18.3582 1.05438 18.9449L30.4515 44.3343C31.1335 44.9223 32.0441 45.2453 33.0121 45.2435C33.9838 45.2453 34.8939 44.9223 35.5753 44.3343Z" fill="#FFC107"/>
</g>
<defs>
<clipPath id="clip0">
<rect width="57" height="66" fill="white" transform="translate(66) rotate(90)"/>
</clipPath>
</defs>
</svg>
